<svg xmlns="http://www.w3.org/2000/svg" width="192" height="64" fill="currentColor" class="bi bi-bootstrap" viewBox="0 0 192 64">
  <path d="M0 16a16 16 90 0116-16h32a16 16 90 0116 16v32a16 16 90 01-16 16H16a16 16 90 01-16-16zm16-12a12 12 90 00-12 12v32a12 12 90 0012 12h32a12 12 90 0012-12V16a12 12 90 00-12-12z" fill="#7952B3" />
  <path d="M20.248 48h13.9c7.216 0 11.552-3.632 11.552-9.584 0-4.408-3.044-7.664-7.616-8.136v-.4c3.328-.56 5.928-3.72 5.928-7.264 0-5.2-3.82-8.44-10.168-8.44H20.248zm5.252-19.5V18.632h7.12c3.892 0 6.168 1.828 6.168 4.948 0 3.208-2.416 4.92-7.056 4.92zm0 15.048V32.648h7.288c4.944 0 7.548 1.852 7.548 5.392 0 3.584-2.508 5.508-7.244 5.508z" fill="#7952B3" />
  <path d="M128 16a16 16 90 0116-16h32a16 16 90 0116 16v32a16 16 90 01-16 16H144a16 16 90 01-16-16zm16-12a12 12 90 00-12 12v32a12 12 90 0012 12h32a12 12 90 0012-12V16a12 12 90 00-12-12z" fill="#0084c8" />
  <path d="M135.6 24h1.6c1.6-2 2.4-7.6 12.4-6.4-.4 24.8-11.2 27.2-10.4 32.4.4 2.8 2.4 4.4 4.8 4.8 7.6-.4 7.6-10.8 10-37.2H164c-.4 9.2-2 18.4-2 27.6 0 6 3.6 9.2 8.8 9.2 8 .4 10.4-9.2 10.4-13.2h-1.6c0 3.2-1.6 5.6-5.2 5.6-9.2 0-4-16-4-29.2h10.8V11.2C136 10.8 141.6 10 135.6 24z" fill="#51c6ee" />
  <path d="M94.667 41.333 99.234 33.333H82.667V30.666H99.234L94.667 22.667 109.334 32 94.667 41.333Z" />
</svg>